<svg xmlns="http://www.w3.org/2000/svg" version="1.1" xmlns:xlink="http://www.w3.org/1999/xlink" viewBox="0 0 200 200"><rect width="200" height="200" fill="url('#gradient')"></rect><defs><linearGradient id="gradient" gradientTransform="rotate(45 0.5 0.5)"><stop offset="0%" stop-color="#af6d3d"></stop><stop offset="100%" stop-color="#cdcdc1"></stop></linearGradient></defs><g><g fill="#9aeabe" transform="matrix(5.228936170212766,0,0,5.228936170212766,8.155258861602633,137.70254401105515)" stroke="#aade39" stroke-width="0.2"><path d="M12.24-14.22L12.24-11.57L7.97-11.57L7.97 0L4.54 0L4.54-11.57L0.35-11.57L0.35-14.22L12.24-14.22ZM23.40-2.54L23.40 0L13.48 0L13.48-2.15L18.05-6.95Q19.74-8.88 19.74-10.01L19.74-10.01Q19.74-10.93 19.34-11.41Q18.94-11.88 18.17-11.88L18.17-11.88Q17.42-11.88 16.95-11.25Q16.48-10.61 16.48-9.65L16.48-9.65L13.18-9.65Q13.18-10.96 13.84-12.07Q14.49-13.17 15.65-13.80Q16.82-14.42 18.25-14.42L18.25-14.42Q20.56-14.42 21.80-13.36Q23.05-12.29 23.05-10.30L23.05-10.30Q23.05-9.46 22.73-8.67Q22.42-7.87 21.76-7.00Q21.10-6.12 19.64-4.66L19.64-4.66L17.80-2.54L23.40-2.54ZM34.22-8.30L34.22-5.66L28.69-5.66L28.69 0L25.26 0L25.26-14.22L34.78-14.22L34.78-11.57L28.69-11.57L28.69-8.30L34.22-8.30Z"></path></g></g></svg>